<?xml version="1.0" standalone="no"?>
<!DOCTYPE svg PUBLIC "-//W3C//DTD SVG 20010904//EN"
 "http://www.w3.org/TR/2001/REC-SVG-20010904/DTD/svg10.dtd">
<svg version="1.0" xmlns="http://www.w3.org/2000/svg"
 width="214.000000pt" height="235.000000pt" viewBox="0 0 214.000000 235.000000"
 preserveAspectRatio="xMidYMid meet">

<g transform="translate(0.000000,235.000000) scale(0.100000,-0.100000)"
fill="#000000" stroke="none">
<path d="M1120 2276 c0 -2 7 -6 15 -10 8 -3 15 -1 15 4 0 6 -7 10 -15 10 -8 0
-15 -2 -15 -4z"/>
<path d="M1238 2273 c7 -3 16 -2 19 1 4 3 -2 6 -13 5 -11 0 -14 -3 -6 -6z"/>
<path d="M1161 2169 c-13 -5 -21 -12 -18 -15 3 -3 18 1 34 10 31 17 21 20 -16
5z"/>
<path d="M510 2149 c0 -5 5 -7 10 -4 6 3 10 8 10 11 0 2 -4 4 -10 4 -5 0 -10
-5 -10 -11z"/>
<path d="M828 2113 c7 -3 16 -2 19 1 4 3 -2 6 -13 5 -11 0 -14 -3 -6 -6z"/>
<path d="M1595 1980 c3 -4 16 -10 30 -12 13 -3 22 -2 20 2 -3 4 -16 10 -30 12
-13 3 -22 2 -20 -2z"/>
<path d="M2100 1983 c-8 -3 -42 -18 -75 -33 -157 -73 -197 -89 -213 -83 -9 3
-14 2 -10 -2 12 -13 -59 -50 -277 -145 -27 -12 -72 -33 -99 -46 -28 -13 -56
-24 -63 -24 -7 0 -61 -24 -120 -54 -60 -29 -123 -59 -140 -66 -35 -13 -35 -11
-36 -169 0 -21 -3 -23 -38 -17 -33 5 -39 4 -37 -11 1 -10 0 -28 0 -41 l-2 -23
-60 32 c-59 31 -60 32 -60 75 0 37 -4 44 -29 57 -17 8 -32 12 -35 9 -3 -3 -6
-25 -6 -49 l0 -44 -29 15 c-35 19 -41 13 -41 -35 l0 -37 -30 11 c-28 10 -30
15 -30 59 0 42 -3 49 -30 63 -37 19 -50 19 -50 0 0 -8 -6 -15 -12 -15 -9 0 -8
-4 2 -10 13 -9 13 -10 0 -10 -13 0 -13 -1 0 -10 8 -5 12 -11 9 -14 -3 -3 -15
1 -27 10 -20 14 -22 24 -22 105 l0 89 -33 13 -32 14 -6 -38 c-7 -49 -9 -51
-39 -36 -24 12 -25 18 -28 108 -3 92 -4 97 -28 108 -14 6 -29 11 -34 11 -6 0
-10 -58 -10 -140 l0 -141 -30 16 c-27 14 -30 20 -30 64 l0 48 -71 31 c-59 27
-70 35 -69 54 5 62 0 76 -30 87 l-30 10 0 -45 c0 -48 0 -48 -57 -27 -8 3 -12
-32 -12 -136 l0 -141 30 -15 c29 -15 29 -16 29 -104 l0 -88 -25 5 c-17 3 -25
0 -26 -9 0 -8 -1 -174 -2 -371 l-2 -356 63 -31 c34 -17 65 -31 67 -31 3 0 5
18 5 40 0 22 4 40 9 40 22 0 50 -38 53 -70 2 -34 6 -37 98 -82 l95 -47 3 39
c2 22 5 40 6 40 2 0 17 -7 32 -15 30 -15 31 -16 33 -65 1 -28 8 -34 103 -79
106 -50 139 -65 268 -121 41 -18 105 -48 141 -66 37 -19 74 -34 83 -34 10 0
70 24 134 54 64 29 153 69 197 89 44 19 118 53 165 75 47 22 121 55 165 74 44
20 109 49 145 66 36 17 110 51 165 75 l100 45 3 751 c2 598 0 751 -10 750 -7
0 -20 -3 -28 -6z m-1849 -480 c13 -4 15 -14 12 -46 -3 -23 -7 -44 -9 -46 -2
-2 -14 3 -27 12 -19 12 -24 24 -24 57 0 34 3 40 16 34 9 -3 23 -8 32 -11z m62
-219 c13 -5 17 -17 17 -50 0 -37 -3 -42 -17 -37 -28 9 -43 34 -43 71 0 23 4
32 13 28 6 -3 20 -9 30 -12z m-110 -43 c49 -21 67 -44 67 -85 0 -19 -5 -26
-20 -26 -11 0 -20 3 -20 8 0 4 -20 15 -45 25 -42 18 -45 21 -45 58 0 21 4 39
9 39 5 0 30 -9 54 -19z m370 -74 c24 -10 27 -17 27 -54 0 -32 -4 -43 -15 -43
-8 0 -15 5 -15 10 0 6 -3 9 -7 8 -5 -1 -27 8 -50 20 -40 21 -43 26 -43 62 l0
40 38 -16 c20 -9 49 -21 65 -27z m153 -72 c27 -14 55 -25 62 -25 8 0 12 -16
12 -45 0 -25 -3 -45 -7 -45 -5 0 -34 12 -65 27 -57 28 -58 29 -58 71 0 23 1
42 3 42 2 0 26 -11 53 -25z m334 -102 c0 -23 -3 -43 -7 -43 -22 1 -46 33 -47
62 -3 44 1 49 29 36 21 -9 25 -18 25 -55z m-772 -74 c41 -18 42 -20 42 -63 0
-51 -1 -51 -88 -6 -40 21 -42 25 -40 61 3 43 3 43 86 8z m152 -73 c19 -11 25
-23 27 -55 3 -46 3 -47 -37 -26 -26 13 -30 21 -30 55 0 44 3 46 40 26z m-40
-116 c0 -43 -12 -50 -42 -26 -12 9 -18 27 -18 55 l0 42 30 -16 c26 -13 30 -21
30 -55z m326 -10 c2 0 4 -20 4 -45 l0 -45 -52 21 c-66 26 -78 36 -78 64 0 53
7 56 67 29 31 -13 57 -24 59 -24z m150 23 c53 -26 54 -27 54 -70 0 -38 -2 -43
-17 -35 -10 5 -39 19 -64 31 -44 19 -47 23 -47 61 0 22 4 40 9 40 6 0 35 -12
65 -27z m-428 -91 c20 -16 23 -24 17 -55 -7 -36 -7 -36 -34 -22 -23 11 -28 21
-29 54 -2 46 9 51 46 23z m543 -61 c4 -14 6 -81 3 -81 -2 0 -15 5 -29 12 -21
9 -25 18 -25 54 0 43 0 43 25 32 14 -6 26 -14 26 -17z m-745 -35 c16 -11 19
-23 16 -50 -7 -63 -58 -40 -57 27 0 40 9 45 41 23z m458 -116 c22 -8 26 -16
26 -50 0 -43 -11 -50 -42 -26 -12 8 -18 27 -18 50 0 40 -1 40 34 26z m304 -39
c51 -23 52 -24 52 -67 0 -24 -2 -44 -5 -44 -2 0 -29 11 -60 24 l-55 25 0 46
c0 26 3 45 8 43 4 -2 31 -15 60 -27z m-96 -53 c9 -7 18 -30 20 -51 4 -35 2
-38 -16 -32 -12 4 -27 7 -33 7 -8 1 -13 17 -13 45 0 45 12 54 42 31z"/>
<path d="M1308 1973 c7 -3 16 -2 19 1 4 3 -2 6 -13 5 -11 0 -14 -3 -6 -6z"/>
<path d="M1360 1969 c0 -5 5 -7 10 -4 6 3 10 8 10 11 0 2 -4 4 -10 4 -5 0 -10
-5 -10 -11z"/>
<path d="M236 1931 c-3 -5 4 -11 16 -14 30 -8 35 -1 9 12 -11 6 -22 7 -25 2z"/>
<path d="M478 1913 c7 -3 16 -2 19 1 4 3 -2 6 -13 5 -11 0 -14 -3 -6 -6z"/>
<path d="M1378 1903 c-23 -6 -23 -19 -1 -27 15 -6 15 -8 3 -16 -22 -14 -10
-12 43 6 26 9 47 19 47 24 0 15 -54 23 -92 13z"/>
<path d="M1275 1755 c-16 -7 -23 -14 -15 -14 8 0 26 6 40 14 32 18 14 18 -25
0z"/>
<path d="M543 1625 c-3 -9 -3 -18 -1 -21 3 -3 8 4 11 16 6 23 -1 27 -10 5z"/>
<path d="M965 1321 c3 -5 -3 -12 -12 -14 -14 -4 -13 -5 5 -6 13 -1 22 5 22 14
0 8 -5 15 -11 15 -5 0 -8 -4 -4 -9z"/>
</g>
</svg>
